<svg width="80" height="80" viewBox="0 0 80 80" fill="none" xmlns="http://www.w3.org/2000/svg">
<path d="M38.1911 23.0444C38.393 22.3252 39.0488 21.8281 39.7958 21.8281H68.4342C69.5383 21.8281 70.3372 22.8822 70.0388 23.9452L56.7076 71.437C56.5057 72.1562 55.85 72.6532 55.103 72.6532H26.4646C25.3605 72.6532 24.5615 71.5991 24.8599 70.5361L38.1911 23.0444Z" fill="url(#paint0_linear_13608_35369)"/>
<path d="M23.9255 7.8842C24.1274 7.165 24.7832 6.66797 25.5302 6.66797H54.1686C55.2727 6.66797 56.0716 7.72207 55.7732 8.78507L42.442 56.2768C42.2401 56.996 41.5843 57.493 40.8373 57.493H12.1989C11.0948 57.493 10.2959 56.4389 10.5943 55.3759L23.9255 7.8842Z" fill="#7813FB" fill-opacity="0.6"/>
<defs>
<linearGradient id="paint0_linear_13608_35369" x1="59.1672" y1="60.0032" x2="11.6672" y2="-88.3301" gradientUnits="userSpaceOnUse">
<stop stop-color="#F16F8A"/>
<stop offset="1" stop-color="#7813FB"/>
</linearGradient>
</defs>
</svg>
