<svg width="80" height="80" viewBox="0 0 80 80" fill="none" xmlns="http://www.w3.org/2000/svg">
<path d="M12.2214 18.1172C10.3061 18.1172 8.46935 18.878 7.11509 20.2323C5.76082 21.5865 5 23.4233 5 25.3386L5 71.53C5.00008 71.8873 5.10613 72.2364 5.30473 72.5334C5.50334 72.8303 5.78556 73.0616 6.1157 73.1981C6.44583 73.3345 6.80903 73.37 7.15932 73.3C7.50961 73.2299 7.83124 73.0575 8.08352 72.8046L18.3848 62.5033C19.0618 61.8262 19.98 61.4456 20.9375 61.4454H55.5495C57.4647 61.4454 59.3015 60.6846 60.6558 59.3303C62.01 57.976 62.7709 56.1393 62.7709 54.224V25.3386C62.7709 23.4233 62.01 21.5865 60.6558 20.2323C59.3015 18.878 57.4647 18.1172 55.5495 18.1172H12.2214Z" fill="url(#paint0_linear_13608_35363)"/>
<path d="M70.2895 6.66797C71.5704 6.66797 72.7988 7.1609 73.7046 8.03831C74.6103 8.91573 75.1191 10.1058 75.1191 11.3466V41.2736C75.1191 41.505 75.0482 41.7312 74.9153 41.9236C74.7825 42.116 74.5938 42.2658 74.373 42.3543C74.1522 42.4427 73.9093 42.4656 73.675 42.4203C73.4407 42.3749 73.2256 42.2632 73.0569 42.0993L66.1674 35.4252C65.7147 34.9865 65.1006 34.74 64.4602 34.7398H41.3118C40.0309 34.7398 38.8025 34.2469 37.8968 33.3695C36.991 32.4921 36.4822 31.302 36.4822 30.0612V11.3466C36.4822 10.1058 36.991 8.91573 37.8968 8.03831C38.8025 7.1609 40.0309 6.66797 41.3118 6.66797H70.2895Z" fill="#7813FB" fill-opacity="0.6"/>
<defs>
<linearGradient id="paint0_linear_13608_35363" x1="28.3333" y1="45.0025" x2="166.667" y2="-4.16416" gradientUnits="userSpaceOnUse">
<stop stop-color="#F16F8A"/>
<stop offset="1" stop-color="#7813FB"/>
</linearGradient>
</defs>
</svg>
